<svg xmlns="http://www.w3.org/2000/svg" width="205.348" height="38.336" viewBox="0 0 205.348 48.336"><defs><style>.a{fill:#0d0d0d;}.b{fill:#fff;}</style></defs><rect class="a" width="90.813" height="48.336"/><g transform="translate(97.259)"><g transform="translate(0.189)"><path class="a" d="M738.023,333.81a.552.552,0,0,1,.545.545v2.137a.552.552,0,0,1-.545.545H727.211a.552.552,0,0,1-.545-.545v-2.037a.825.825,0,0,1,.1-.444,1.465,1.465,0,0,1,.2-.262l6.455-7.605h-6.011a.553.553,0,0,1-.545-.545v-2.139a.553.553,0,0,1,.545-.545h10.41a.552.552,0,0,1,.545.545V325.5a.941.941,0,0,1-.263.666l-6.455,7.646Z" transform="translate(-726.666 -322.715)"/><path class="a" d="M765.951,333.81a.552.552,0,0,1,.545.545v2.137a.552.552,0,0,1-.545.545h-9.56a.553.553,0,0,1-.545-.545V323.461a.553.553,0,0,1,.545-.545h9.4a.553.553,0,0,1,.545.545V325.6a.553.553,0,0,1-.545.545h-6.214v2.178h5.77a.552.552,0,0,1,.545.543v2.139a.531.531,0,0,1-.161.384.522.522,0,0,1-.384.161h-5.77v2.259Z" transform="translate(-741.741 -322.715)"/><path class="a" d="M792.785,333.81a.521.521,0,0,1,.383.162.526.526,0,0,1,.162.383v2.137a.526.526,0,0,1-.162.383.52.52,0,0,1-.383.162h-9.561a.552.552,0,0,1-.545-.545V323.461a.552.552,0,0,1,.545-.545h9.4a.552.552,0,0,1,.545.545V325.6a.552.552,0,0,1-.545.545h-6.214v2.178h5.77a.551.551,0,0,1,.545.543v2.139a.529.529,0,0,1-.161.384.522.522,0,0,1-.383.161h-5.77v2.259Z" transform="translate(-755.605 -322.715)"/><path class="a" d="M813.829,322.5a7.2,7.2,0,0,1,2.369.374,6.926,6.926,0,0,1,1.868.958,4.861,4.861,0,0,1,1.23,1.291,2.689,2.689,0,0,1,.463,1.351.435.435,0,0,1-.128.314.406.406,0,0,1-.293.13h-2.643a1.091,1.091,0,0,1-.454-.079,1.55,1.55,0,0,1-.353-.243c-.041-.041-.1-.108-.192-.2a1.825,1.825,0,0,0-.372-.291,2.553,2.553,0,0,0-.606-.263,3.07,3.07,0,0,0-.887-.111,5.3,5.3,0,0,0-.737.051,2.661,2.661,0,0,0-.625.161,1.1,1.1,0,0,0-.444.312.752.752,0,0,0-.173.506.7.7,0,0,0,.192.5,1.742,1.742,0,0,0,.646.373,8.6,8.6,0,0,0,1.2.334c.5.107,1.115.235,1.857.382a10.57,10.57,0,0,1,1.936.566,4.621,4.621,0,0,1,1.38.857,3.24,3.24,0,0,1,.827,1.21,4.457,4.457,0,0,1,.274,1.644,3.611,3.611,0,0,1-.466,1.835,4.216,4.216,0,0,1-1.3,1.381,6.312,6.312,0,0,1-1.977.878,9.64,9.64,0,0,1-2.49.3,8.135,8.135,0,0,1-2.5-.363,6.831,6.831,0,0,1-1.947-.958,4.839,4.839,0,0,1-1.279-1.34,3,3,0,0,1-.485-1.513.427.427,0,0,1,.131-.313.407.407,0,0,1,.293-.13h2.643a1.157,1.157,0,0,1,.444.07,1.274,1.274,0,0,1,.32.212c.055.054.134.141.244.262a2.474,2.474,0,0,0,.433.374,2.758,2.758,0,0,0,.687.333,3.161,3.161,0,0,0,1.018.141,5.886,5.886,0,0,0,1.786-.232.866.866,0,0,0,.714-.838.611.611,0,0,0-.263-.5,2.651,2.651,0,0,0-.786-.373,11.764,11.764,0,0,0-1.342-.334q-.817-.16-1.925-.4a5.628,5.628,0,0,1-3.037-1.483,3.936,3.936,0,0,1-.959-2.774,3.644,3.644,0,0,1,.394-1.654,4.2,4.2,0,0,1,1.139-1.391,5.681,5.681,0,0,1,1.8-.958A7.482,7.482,0,0,1,813.829,322.5Z" transform="translate(-768.54 -322.5)"/><path class="a" d="M843.957,322.916a8.488,8.488,0,0,1,2.32.293,4.823,4.823,0,0,1,1.755.887,3.972,3.972,0,0,1,1.12,1.483,5.024,5.024,0,0,1,.394,2.058,5.079,5.079,0,0,1-.394,2.077,3.88,3.88,0,0,1-1.12,1.473,4.987,4.987,0,0,1-1.755.887,8.238,8.238,0,0,1-2.32.3h-2.583v4.115a.515.515,0,0,1-.162.383.52.52,0,0,1-.383.162h-2.64a.552.552,0,0,1-.545-.545V323.461a.517.517,0,0,1,.161-.383.522.522,0,0,1,.383-.162Zm-2.583,6.316h2.481a2.454,2.454,0,0,0,1.4-.374,1.619,1.619,0,0,0,0-2.442,2.466,2.466,0,0,0-1.4-.372h-2.481Z" transform="translate(-784.002 -322.715)"/><path class="a" d="M870.418,322.916a.821.821,0,0,1,.616.222,1.366,1.366,0,0,1,.293.445l4.4,12.709a.894.894,0,0,1,.082.3.449.449,0,0,1-.444.444h-2.541a.789.789,0,0,1-.575-.172.753.753,0,0,1-.214-.333l-.564-1.675H866.1l-.567,1.675a.724.724,0,0,1-.211.333.8.8,0,0,1-.575.172h-2.542a.449.449,0,0,1-.444-.444.947.947,0,0,1,.08-.3l4.4-12.709a1.354,1.354,0,0,1,.293-.445.818.818,0,0,1,.616-.222Zm-3.267,8.816h3.267l-1.635-4.841Z" transform="translate(-796.463 -322.715)"/><path class="a" d="M900.206,322.916a9.134,9.134,0,0,1,2.38.284,5.064,5.064,0,0,1,1.786.846,3.688,3.688,0,0,1,1.129,1.443,4.953,4.953,0,0,1,.394,2.047,4.654,4.654,0,0,1-.625,2.511,4.011,4.011,0,0,1-1.777,1.524l2.5,4.8a.492.492,0,0,1,.06.222.449.449,0,0,1-.444.444h-2.744a.764.764,0,0,1-.575-.182,1.712,1.712,0,0,1-.271-.363l-2.24-4.316h-1.857v4.316a.552.552,0,0,1-.545.545h-2.64a.552.552,0,0,1-.545-.545V323.461a.552.552,0,0,1,.545-.545Zm-2.281,6.113h2.281a2.756,2.756,0,0,0,1.4-.322,1.514,1.514,0,0,0,0-2.34,2.761,2.761,0,0,0-1.4-.323h-2.281Z" transform="translate(-813.218 -322.715)"/><path class="a" d="M935.161,336.373a.374.374,0,0,1,.06.222.449.449,0,0,1-.444.444h-3.207a.821.821,0,0,1-.465-.121,1.7,1.7,0,0,1-.362-.344l-3.815-4.8v4.72a.514.514,0,0,1-.161.383.52.52,0,0,1-.383.162h-2.64a.552.552,0,0,1-.545-.545V323.461a.552.552,0,0,1,.545-.545h2.64a.526.526,0,0,1,.383.162.517.517,0,0,1,.161.383v4.257l3.552-4.358a3.678,3.678,0,0,1,.263-.283.75.75,0,0,1,.542-.162h3.15a.449.449,0,0,1,.444.445.382.382,0,0,1-.06.222l-4.984,6.092Z" transform="translate(-828.203 -322.715)"/></g><g transform="translate(0.32 20.133)"><path class="a" d="M728.452,368.482c-.022.471-.03.911-.03,1.319s.008.846.03,1.317a3.164,3.164,0,0,0,.792,2.11,2.766,2.766,0,0,0,2.141.808,3.756,3.756,0,0,0,1.271-.188,2.663,2.663,0,0,0,.857-.486,2.111,2.111,0,0,0,.518-.683,4.023,4.023,0,0,0,.274-.776.389.389,0,0,1,.156-.259.444.444,0,0,1,.252-.087h.723a.351.351,0,0,1,.345.345,3.282,3.282,0,0,1-.268,1.13,3.664,3.664,0,0,1-.775,1.153,4.224,4.224,0,0,1-1.35.9,4.977,4.977,0,0,1-2,.362,4.861,4.861,0,0,1-1.818-.322,4.145,4.145,0,0,1-1.375-.887,3.923,3.923,0,0,1-.885-1.34,4.9,4.9,0,0,1-.345-1.7q-.049-1.394,0-2.792a4.922,4.922,0,0,1,.345-1.7,3.9,3.9,0,0,1,.885-1.349,4.135,4.135,0,0,1,1.375-.887,4.86,4.86,0,0,1,1.818-.32,4.97,4.97,0,0,1,2,.36,4.215,4.215,0,0,1,1.35.9,3.667,3.667,0,0,1,.775,1.153,3.282,3.282,0,0,1,.268,1.13.334.334,0,0,1-.1.244.327.327,0,0,1-.241.1h-.723a.444.444,0,0,1-.252-.086.391.391,0,0,1-.156-.259,4.034,4.034,0,0,0-.274-.776,2.106,2.106,0,0,0-.518-.682,2.637,2.637,0,0,0-.857-.487,3.757,3.757,0,0,0-1.271-.188,2.772,2.772,0,0,0-2.141.808A3.164,3.164,0,0,0,728.452,368.482Z" transform="translate(-726.938 -364.153)"/><path class="a" d="M748.612,368.4a5.011,5.011,0,0,1,.3-1.656,3.9,3.9,0,0,1,.841-1.35,3.993,3.993,0,0,1,1.35-.909,5.165,5.165,0,0,1,3.67,0,4,4,0,0,1,1.35.909,3.9,3.9,0,0,1,.841,1.35,5,5,0,0,1,.3,1.656q.049,1.4,0,2.792a5.226,5.226,0,0,1-.32,1.655,3.974,3.974,0,0,1-.841,1.357,3.829,3.829,0,0,1-1.342.911,5.218,5.218,0,0,1-3.653,0,3.823,3.823,0,0,1-1.342-.911,3.976,3.976,0,0,1-.841-1.357,5.16,5.16,0,0,1-.32-1.655Q748.562,369.8,748.612,368.4Zm7.17.078a4.052,4.052,0,0,0-.244-1.287,2.444,2.444,0,0,0-.589-.91,2.4,2.4,0,0,0-.885-.541,3.586,3.586,0,0,0-2.246,0,2.409,2.409,0,0,0-.885.541,2.529,2.529,0,0,0-.6.91,3.641,3.641,0,0,0-.235,1.287c-.022.471-.03.911-.03,1.319s.008.846.03,1.317a3.644,3.644,0,0,0,.235,1.287,2.519,2.519,0,0,0,.6.909,2.427,2.427,0,0,0,.885.542,3.6,3.6,0,0,0,2.246,0,2.4,2.4,0,0,0,1.473-1.452,4.055,4.055,0,0,0,.244-1.287c.022-.471.03-.911.03-1.317S755.8,368.954,755.782,368.482Z" transform="translate(-738.123 -364.153)"/><path class="a" d="M778.513,375.459a.5.5,0,0,1-.367-.149,1.812,1.812,0,0,1-.261-.322l-5.1-7.672v7.72a.43.43,0,0,1-.424.423h-.643a.4.4,0,0,1-.3-.126.4.4,0,0,1-.126-.3V364.9a.43.43,0,0,1,.422-.423h.551a.506.506,0,0,1,.369.149,1.986,1.986,0,0,1,.258.322l5.1,7.672V364.9a.4.4,0,0,1,.126-.3.407.407,0,0,1,.3-.126h.644a.425.425,0,0,1,.421.423v10.137a.409.409,0,0,1-.123.3.4.4,0,0,1-.3.126Z" transform="translate(-749.855 -364.32)"/><path class="a" d="M796.39,364.153a4.441,4.441,0,0,1,1.687.3,4.583,4.583,0,0,1,1.24.73,3.243,3.243,0,0,1,.778.926,2.132,2.132,0,0,1,.282.887.28.28,0,0,1-.1.243.353.353,0,0,1-.249.1h-.643a.521.521,0,0,1-.274-.063.7.7,0,0,1-.214-.282,3.069,3.069,0,0,0-.258-.4,2.283,2.283,0,0,0-.487-.469,2.972,2.972,0,0,0-.745-.393,2.915,2.915,0,0,0-1.022-.164,3.42,3.42,0,0,0-.838.1,2.432,2.432,0,0,0-.715.307,1.61,1.61,0,0,0-.5.509,1.329,1.329,0,0,0-.189.713,1.261,1.261,0,0,0,.181.691,1.636,1.636,0,0,0,.581.509,5.089,5.089,0,0,0,1.014.416c.408.125.9.266,1.49.423a9.64,9.64,0,0,1,1.514.517,3.93,3.93,0,0,1,1.011.636,2.119,2.119,0,0,1,.572.816,2.857,2.857,0,0,1,.181,1.044,2.774,2.774,0,0,1-.3,1.294,3.047,3.047,0,0,1-.857,1.012,4.072,4.072,0,0,1-1.326.66,5.989,5.989,0,0,1-1.733.236,5.092,5.092,0,0,1-1.679-.267,4.638,4.638,0,0,1-1.318-.69,3.566,3.566,0,0,1-.87-.942,2.034,2.034,0,0,1-.337-1.02.348.348,0,0,1,.345-.345h.643a.588.588,0,0,1,.274.063.551.551,0,0,1,.211.282,2.286,2.286,0,0,0,.816.965,3.208,3.208,0,0,0,.8.385,3.558,3.558,0,0,0,1.115.156,4.213,4.213,0,0,0,1.043-.125,3.047,3.047,0,0,0,.871-.362,1.942,1.942,0,0,0,.6-.564,1.309,1.309,0,0,0,.219-.738,1.037,1.037,0,0,0-.252-.7,2.327,2.327,0,0,0-.72-.526,6.987,6.987,0,0,0-1.153-.431c-.455-.13-.972-.268-1.547-.415a6.344,6.344,0,0,1-1.334-.494,3.316,3.316,0,0,1-.893-.667,2.3,2.3,0,0,1-.5-.832,3.175,3.175,0,0,1-.148-.988,2.864,2.864,0,0,1,.235-1.13,2.792,2.792,0,0,1,.7-.972,3.481,3.481,0,0,1,1.161-.682A4.7,4.7,0,0,1,796.39,364.153Z" transform="translate(-760.689 -364.153)"/><path class="a" d="M821.707,364.476a.429.429,0,0,1,.424.423v6.277a6.171,6.171,0,0,1-.244,1.78,3.824,3.824,0,0,1-.753,1.405,3.39,3.39,0,0,1-1.312.926,5.015,5.015,0,0,1-1.915.33,5.068,5.068,0,0,1-1.928-.33,3.386,3.386,0,0,1-1.312-.926,3.761,3.761,0,0,1-.745-1.405,6.369,6.369,0,0,1-.236-1.78V364.9a.43.43,0,0,1,.425-.423h.643a.429.429,0,0,1,.424.423v6.355a3.163,3.163,0,0,0,.72,2.282,2.665,2.665,0,0,0,2.007.746,2.693,2.693,0,0,0,2.019-.746,3.152,3.152,0,0,0,.728-2.282V364.9a.4.4,0,0,1,.126-.3.408.408,0,0,1,.3-.126Z" transform="translate(-771.757 -364.32)"/><path class="a" d="M843.353,374.047a.428.428,0,0,1,.424.423v.565a.431.431,0,0,1-.424.423h-6.387a.4.4,0,0,1-.3-.126.4.4,0,0,1-.126-.3V364.9a.429.429,0,0,1,.421-.423h.644a.407.407,0,0,1,.3.126.4.4,0,0,1,.126.3v9.149Z" transform="translate(-783.566 -364.32)"/><path class="a" d="M856.79,364.476a.429.429,0,0,1,.424.423v.566a.427.427,0,0,1-.424.423h-2.933v9.148a.431.431,0,0,1-.424.423h-.641a.4.4,0,0,1-.3-.126.4.4,0,0,1-.126-.3v-9.148h-2.936a.428.428,0,0,1-.422-.423V364.9a.43.43,0,0,1,.422-.423Z" transform="translate(-790.005 -364.32)"/><path class="a" d="M872.711,372.981h-5.444l-.816,2.087a.753.753,0,0,1-.173.259.588.588,0,0,1-.438.133h-.581a.346.346,0,0,1-.345-.345.558.558,0,0,1,.063-.22l3.842-9.9a1.367,1.367,0,0,1,.235-.345.607.607,0,0,1,.471-.173h.942a.61.61,0,0,1,.471.173,1.447,1.447,0,0,1,.235.345l3.829,9.9a.6.6,0,0,1,.06.22.346.346,0,0,1-.345.345h-.581a.588.588,0,0,1-.438-.133.757.757,0,0,1-.173-.259Zm-4.894-1.413h4.346l-2.166-5.6Z" transform="translate(-798.222 -364.32)"/><path class="a" d="M896.476,375.459a.5.5,0,0,1-.367-.149,1.833,1.833,0,0,1-.26-.322l-5.1-7.672v7.72a.431.431,0,0,1-.424.423h-.644a.393.393,0,0,1-.3-.126.4.4,0,0,1-.126-.3V364.9a.43.43,0,0,1,.422-.423h.551a.506.506,0,0,1,.37.149,1.982,1.982,0,0,1,.258.322l5.1,7.672V364.9a.4.4,0,0,1,.126-.3.408.408,0,0,1,.3-.126h.643a.425.425,0,0,1,.422.423v10.137a.426.426,0,0,1-.422.423Z" transform="translate(-810.8 -364.32)"/><path class="a" d="M912.406,368.482c-.022.471-.03.911-.03,1.319s.008.846.03,1.317a3.164,3.164,0,0,0,.792,2.11,2.766,2.766,0,0,0,2.142.808,3.757,3.757,0,0,0,1.271-.188,2.665,2.665,0,0,0,.857-.486,2.1,2.1,0,0,0,.518-.683,4.023,4.023,0,0,0,.274-.776.39.39,0,0,1,.156-.259.445.445,0,0,1,.252-.087h.723a.351.351,0,0,1,.345.345,3.274,3.274,0,0,1-.268,1.13,3.673,3.673,0,0,1-.775,1.153,4.226,4.226,0,0,1-1.35.9,4.974,4.974,0,0,1-2,.362,4.862,4.862,0,0,1-1.819-.322,4.149,4.149,0,0,1-1.375-.887,3.93,3.93,0,0,1-.885-1.34,4.9,4.9,0,0,1-.345-1.7q-.049-1.394,0-2.792a4.922,4.922,0,0,1,.345-1.7,3.911,3.911,0,0,1,.885-1.349,4.139,4.139,0,0,1,1.375-.887,4.861,4.861,0,0,1,1.819-.32,4.967,4.967,0,0,1,2,.36,4.217,4.217,0,0,1,1.35.9,3.676,3.676,0,0,1,.775,1.153,3.274,3.274,0,0,1,.268,1.13.332.332,0,0,1-.1.244.327.327,0,0,1-.241.1h-.723a.444.444,0,0,1-.252-.086.391.391,0,0,1-.156-.259,4.034,4.034,0,0,0-.274-.776,2.093,2.093,0,0,0-.518-.682,2.639,2.639,0,0,0-.857-.487,3.758,3.758,0,0,0-1.271-.188,2.772,2.772,0,0,0-2.142.808A3.164,3.164,0,0,0,912.406,368.482Z" transform="translate(-821.976 -364.153)"/><path class="a" d="M936.29,375.036a.43.43,0,0,1-.424.423h-.643a.4.4,0,0,1-.3-.126.4.4,0,0,1-.126-.3v-3.673l-3.749-6.322a.481.481,0,0,1-.079-.22.325.325,0,0,1,.1-.243.335.335,0,0,1,.244-.1h.674a.652.652,0,0,1,.449.126,1.107,1.107,0,0,1,.211.267l2.887,4.988,2.9-4.988a1.121,1.121,0,0,1,.211-.267.652.652,0,0,1,.449-.126h.674a.336.336,0,0,1,.244.1.327.327,0,0,1,.1.243.512.512,0,0,1-.079.22l-3.75,6.322Z" transform="translate(-832.351 -364.32)"/></g><g transform="translate(0 37.039)"><path class="a" d="M730.4,399.128a4.431,4.431,0,0,1,1.687.3,4.577,4.577,0,0,1,1.241.73,3.25,3.25,0,0,1,.778.926,2.136,2.136,0,0,1,.282.887.279.279,0,0,1-.1.242.351.351,0,0,1-.249.1H733.4a.521.521,0,0,1-.274-.063.7.7,0,0,1-.213-.282,3.1,3.1,0,0,0-.258-.4,2.285,2.285,0,0,0-.488-.47,2.974,2.974,0,0,0-.745-.393,2.9,2.9,0,0,0-1.021-.164,3.423,3.423,0,0,0-.838.1,2.441,2.441,0,0,0-.715.306,1.62,1.62,0,0,0-.5.509,1.33,1.33,0,0,0-.189.713,1.257,1.257,0,0,0,.181.692,1.636,1.636,0,0,0,.581.509,5.117,5.117,0,0,0,1.013.416q.612.187,1.49.423a9.712,9.712,0,0,1,1.515.518,3.933,3.933,0,0,1,1.01.635,2.121,2.121,0,0,1,.572.816,2.844,2.844,0,0,1,.181,1.044,2.77,2.77,0,0,1-.3,1.294,3.041,3.041,0,0,1-.857,1.012,4.059,4.059,0,0,1-1.325.66,5.994,5.994,0,0,1-1.734.235,5.092,5.092,0,0,1-1.679-.267,4.657,4.657,0,0,1-1.317-.69,3.585,3.585,0,0,1-.871-.942,2.034,2.034,0,0,1-.337-1.02.349.349,0,0,1,.345-.345h.643a.585.585,0,0,1,.274.063.547.547,0,0,1,.211.282,2.336,2.336,0,0,0,.291.48,2.3,2.3,0,0,0,.526.486,3.18,3.18,0,0,0,.8.385,3.547,3.547,0,0,0,1.115.156,4.244,4.244,0,0,0,1.044-.124,3.067,3.067,0,0,0,.871-.362,1.94,1.94,0,0,0,.6-.564,1.315,1.315,0,0,0,.219-.738,1.038,1.038,0,0,0-.252-.7,2.323,2.323,0,0,0-.72-.526,6.993,6.993,0,0,0-1.153-.431c-.454-.13-.972-.269-1.547-.415a6.279,6.279,0,0,1-1.334-.494,3.316,3.316,0,0,1-.893-.667,2.308,2.308,0,0,1-.5-.833,3.175,3.175,0,0,1-.148-.988,2.86,2.86,0,0,1,.236-1.13,2.789,2.789,0,0,1,.7-.973,3.491,3.491,0,0,1,1.161-.682A4.7,4.7,0,0,1,730.4,399.128Z" transform="translate(-726.275 -399.128)"/><path class="a" d="M754.658,409.022a.41.41,0,0,1,.3.125.417.417,0,0,1,.126.3v.566a.429.429,0,0,1-.424.423h-6.34a.4.4,0,0,1-.3-.126.4.4,0,0,1-.126-.3V399.874a.431.431,0,0,1,.422-.423h6.214a.411.411,0,0,1,.3.126.4.4,0,0,1,.126.3v.565a.4.4,0,0,1-.126.3.409.409,0,0,1-.3.125h-5.146v3.311h4.8a.41.41,0,0,1,.3.126.4.4,0,0,1,.126.3v.566a.4.4,0,0,1-.126.3.408.408,0,0,1-.3.125h-4.8v3.437Z" transform="translate(-737.445 -399.295)"/><path class="a" d="M771.329,399.451a5.429,5.429,0,0,1,1.452.189,3.494,3.494,0,0,1,1.2.581,2.836,2.836,0,0,1,.824,1,3.279,3.279,0,0,1,.307,1.475,3.045,3.045,0,0,1-.636,2.024,3.436,3.436,0,0,1-1.624,1.067l2.369,4.127a.405.405,0,0,1,.047.173.346.346,0,0,1-.345.345h-.677a.611.611,0,0,1-.463-.158,1.478,1.478,0,0,1-.211-.265l-2.276-4h-2.7v4a.429.429,0,0,1-.424.423h-.643a.4.4,0,0,1-.3-.126.4.4,0,0,1-.126-.3V399.874a.431.431,0,0,1,.422-.423ZM768.6,404.6h2.651a2.953,2.953,0,0,0,1.75-.446,1.667,1.667,0,0,0,.619-1.452,1.582,1.582,0,0,0-.619-1.42,3.131,3.131,0,0,0-1.75-.416H768.6Z" transform="translate(-747.372 -399.295)"/><path class="a" d="M793.367,399.844a.848.848,0,0,1,.173-.259.592.592,0,0,1,.441-.134h.58a.354.354,0,0,1,.345.345.4.4,0,0,1-.033.158l-3.387,9.854a.962.962,0,0,1-.307.454.81.81,0,0,1-.526.173h-.627a.766.766,0,0,1-.518-.173.992.992,0,0,1-.3-.454l-3.4-9.854a.4.4,0,0,1-.033-.158.327.327,0,0,1,.1-.242.323.323,0,0,1,.241-.1h.581a.592.592,0,0,1,.441.134.85.85,0,0,1,.173.259l3.029,9.021Z" transform="translate(-757.014 -399.295)"/><path class="a" d="M808.954,410.434a.4.4,0,0,1-.3-.126.4.4,0,0,1-.126-.3V399.874a.431.431,0,0,1,.422-.423h.643a.407.407,0,0,1,.3.126.4.4,0,0,1,.126.3v10.137a.43.43,0,0,1-.425.423Z" transform="translate(-768.772 -399.295)"/><path class="a" d="M817.815,403.458c-.022.471-.03.911-.03,1.319s.008.846.03,1.317a3.163,3.163,0,0,0,.791,2.11,2.767,2.767,0,0,0,2.142.808,3.756,3.756,0,0,0,1.271-.188,2.658,2.658,0,0,0,.857-.486,2.1,2.1,0,0,0,.518-.683,4.076,4.076,0,0,0,.274-.776.39.39,0,0,1,.156-.259.444.444,0,0,1,.252-.086h.723a.35.35,0,0,1,.345.345,3.27,3.27,0,0,1-.268,1.13,3.668,3.668,0,0,1-.775,1.153,4.213,4.213,0,0,1-1.35.9,4.967,4.967,0,0,1-2,.362,4.858,4.858,0,0,1-1.818-.322,4.15,4.15,0,0,1-1.375-.887,3.93,3.93,0,0,1-.885-1.341,4.9,4.9,0,0,1-.345-1.7q-.049-1.395,0-2.792a4.927,4.927,0,0,1,.345-1.7,3.907,3.907,0,0,1,.885-1.349,4.151,4.151,0,0,1,1.375-.887,4.857,4.857,0,0,1,1.818-.32,4.977,4.977,0,0,1,2,.36,4.221,4.221,0,0,1,1.35.9,3.664,3.664,0,0,1,.775,1.153,3.269,3.269,0,0,1,.268,1.13.333.333,0,0,1-.1.244.327.327,0,0,1-.241.1h-.723a.445.445,0,0,1-.252-.087.389.389,0,0,1-.156-.259,4.079,4.079,0,0,0-.274-.777,2.092,2.092,0,0,0-.518-.682,2.633,2.633,0,0,0-.857-.488,3.757,3.757,0,0,0-1.271-.188,2.773,2.773,0,0,0-2.142.808A3.164,3.164,0,0,0,817.815,403.458Z" transform="translate(-772.786 -399.128)"/><path class="a" d="M845.613,409.022a.408.408,0,0,1,.3.125.417.417,0,0,1,.126.3v.566a.411.411,0,0,1-.126.3.405.405,0,0,1-.3.126h-6.34a.4.4,0,0,1-.3-.126.4.4,0,0,1-.126-.3V399.874a.43.43,0,0,1,.421-.423h6.214a.412.412,0,0,1,.3.126.4.4,0,0,1,.126.3v.565a.4.4,0,0,1-.126.3.411.411,0,0,1-.3.125h-5.146v3.311h4.8a.412.412,0,0,1,.3.126.4.4,0,0,1,.126.3v.566a.405.405,0,0,1-.126.3.41.41,0,0,1-.3.125h-4.8v3.437Z" transform="translate(-784.436 -399.295)"/><path class="a" d="M860.63,399.128a4.429,4.429,0,0,1,1.687.3,4.575,4.575,0,0,1,1.241.73,3.244,3.244,0,0,1,.778.926,2.137,2.137,0,0,1,.282.887.28.28,0,0,1-.1.242.35.35,0,0,1-.249.1h-.644a.518.518,0,0,1-.274-.063.7.7,0,0,1-.214-.282,3.081,3.081,0,0,0-.258-.4,2.281,2.281,0,0,0-.487-.47,2.991,2.991,0,0,0-.745-.393,2.905,2.905,0,0,0-1.022-.164,3.424,3.424,0,0,0-.838.1,2.432,2.432,0,0,0-.714.306,1.617,1.617,0,0,0-.5.509,1.33,1.33,0,0,0-.189.713,1.261,1.261,0,0,0,.181.692,1.635,1.635,0,0,0,.581.509,5.13,5.13,0,0,0,1.013.416c.408.125.9.265,1.49.423a9.7,9.7,0,0,1,1.514.518,3.946,3.946,0,0,1,1.011.635,2.132,2.132,0,0,1,.572.816,2.853,2.853,0,0,1,.181,1.044,2.776,2.776,0,0,1-.3,1.294,3.036,3.036,0,0,1-.857,1.012,4.054,4.054,0,0,1-1.325.66,5.99,5.99,0,0,1-1.733.235,5.094,5.094,0,0,1-1.679-.267,4.659,4.659,0,0,1-1.317-.69,3.584,3.584,0,0,1-.871-.942,2.035,2.035,0,0,1-.337-1.02.349.349,0,0,1,.345-.345h.644a.584.584,0,0,1,.274.063.547.547,0,0,1,.211.282,2.277,2.277,0,0,0,.816.965,3.183,3.183,0,0,0,.8.385,3.542,3.542,0,0,0,1.115.156,4.24,4.24,0,0,0,1.043-.124,3.061,3.061,0,0,0,.871-.362,1.941,1.941,0,0,0,.6-.564,1.315,1.315,0,0,0,.219-.738,1.036,1.036,0,0,0-.252-.7,2.318,2.318,0,0,0-.72-.526,7,7,0,0,0-1.153-.431c-.455-.13-.973-.269-1.548-.415a6.277,6.277,0,0,1-1.334-.494,3.324,3.324,0,0,1-.893-.667,2.3,2.3,0,0,1-.5-.833,3.177,3.177,0,0,1-.148-.988,2.86,2.86,0,0,1,.235-1.13,2.784,2.784,0,0,1,.7-.973,3.483,3.483,0,0,1,1.161-.682A4.7,4.7,0,0,1,860.63,399.128Z" transform="translate(-793.557 -399.128)"/></g></g><g transform="translate(13.539 4.833)"><path class="b" d="M555.947,353.295a4.766,4.766,0,0,0-1.047.174c-.392,0-.784-.61-.784-1.046,0-.3.654-.174.654-.61,0-.349-.785-.131-1.221-.131-.392,0-.48-.131-.48-.3,0-.393.436-.436.828-.48,1.308-.131,7.586-1.526,8.109-1.7.392-.087,1.046-.218,1.875-.392.784-1.482,2.833-5.231,3.4-6.757a16.781,16.781,0,0,1,1.177-2.485,1.8,1.8,0,0,0,.305-.785c0-.392-.523-.566-3.706-.566-.959,0-2.7-.262-4.141-.262-.654,0-1.875.131-2.441.131a1.5,1.5,0,0,1-1.352-1.569c0-1.613,1.657-.741,1.657-1.439,0-.567-1.177.044-1.177-1.22a1.387,1.387,0,0,1,1.351-1.351c.872,0,4.665.479,6.234.654.436.044,1.09.044,3.357.087.567,0,6.452.436,7.193.523A1.226,1.226,0,0,1,577,335.116c0,.872-.915,2.005-1.569,3.226-.174.349-2.659,5.275-3.793,7.236-.61,1.046-.654,1.264-.654,1.439,0,.13.087.218.349.218.3,0,2.18-.915,2.528-1,2.005-.48,2.877-.959,3.182-.959a.691.691,0,0,1,.567.567c0,.872-1.307.915-1.307,1.307,0,.523,1,.087,1.22.7,0,.61-1.22.959-1.22,1.4a.115.115,0,0,0,.13.13c.088,0,.654-.218.828-.218.131,0,.261.087.261.3a.758.758,0,0,1-.479.523c-3.357,1.438-8.24,2.441-9.46,3.008-.523,1.09-1.7,3.095-3.487,6.452a6.69,6.69,0,0,0-.7,1.351c0,.218.261.392.523.392.567,0,11.247-2.18,12.6-2.18a.6.6,0,0,1,.653.567c0,1-1.395.348-1.395,1.177,0,.523,1,.131,1,.784,0,.7-1.09.872-1.09,1.046s.043.306.175.306.392-.087.654-.087a.488.488,0,0,1,.435.523c0,.611-.523.915-1.046,1.046-.741.174-4.926.828-5.842,1-2.179.392-13.82,2-15.52,2-.436,0-.654-.174-.654-.7,0-1,1.133-.611,1.133-.959,0-.218-.479-.305-.7-.305s-.436-.087-.436-.3c0-.828,1-.741,1-1.133,0-.218-.566-.087-.566-.654,0-1.395,2.092-1.09,2.746-1.743a2.116,2.116,0,0,0,.479-.741c.131-.3,1.439-2.7,1.657-3.226.348-.872,1.831-2.964,1.831-3.357a.231.231,0,0,0-.262-.261c-.392,0-4.228.872-4.8.872-.348,0-.523-.175-.523-.393,0-.436.872-.523.872-.828S556.165,353.295,555.947,353.295Z" transform="translate(-553.07 -332.5)"/><path class="b" d="M614.005,342.5c1.177-2.18,5.537-8.2,8.109-8.2,1.657,0,2.223,1.482,3.531,3.095a4.649,4.649,0,0,1,.872,2.7c0,1.177-.479,3.182-.436,3.749.131,1-.436,3.051-1.177,3.051-.479,0-.61-.523-1-.523-.523,0-.305,1.395-1.221,1.395-.785,0-.043-1.22-.611-1.22-.479,0-.654,1.831-.915,1.918-.087.043-.262.043-.393.087-.131.436-.349.567-.567.567-.13,0-.217-.218-.217-.436a15.132,15.132,0,0,0,.741-3.4c.043-.654.567-2.877.567-3.487,0-.741-.218-1.482-.785-1.482-1.526,0-6.191,12.686-6.191,18.354a3.973,3.973,0,0,0,3.837,4.141c1.482,0,3.138-.915,4.359-1.482a21.137,21.137,0,0,0,2.834-1.918c.13,0,.13.131.13.262,0,.087-.348.392-.348.61,0,.3.218.523.218.784,0,.393-.828.567-.828.915,0,.218.567.741.567.959,0,.436-6.234,5.362-9.9,5.362-2,0-3.531-2-4.446-3.139-1.352-1.7-1.657-2.441-1.657-6.713C609.079,353.05,611.477,347.164,614.005,342.5Z" transform="translate(-582.007 -333.432)"/><path class="b" d="M662.969,334.941a.382.382,0,0,0,.392.349c.261,0,.479-.087.61-.087a.275.275,0,0,1,.3.3c0,.611-1.133.741-1.133,1.352a.244.244,0,0,0,.218.261c.174,0,.305-.131.479-.131.131,0,.175.131.175.218,0,.218-.523.3-.523.479a.275.275,0,0,0,.305.305c.261,0,.479-.218.785-.218.174,0,.218.131.218.262,0,.174-.915.567-3.008,1.962-2.441,1.613-8.718,6.975-8.718,9.373,0,.61.784,1,1.307,1,.828,0,4.316-1.177,6.321-1.177,1.089,0,2.267,1.962,2.354,2.441a7.165,7.165,0,0,1,.131,1.482c0,8.326-15.433,18.048-16.392,18.048-.741,0-.828-.7-.828-1.09,0-.915,1-.915,1-1.482,0-.131-.044-.262-.044-.392,0-.174.131-.218.131-.479,0-.131-.218-.174-.3-.174a2.78,2.78,0,0,0-.393.087c-.174,0-.218-.087-.261-.262,0-.828,1.221-1.264,1.221-1.526a.16.16,0,0,0-.174-.174c-.174,0-.436.3-.61.3a.465.465,0,0,1-.436-.479c0-.959,1.744-1.656,4.577-3.575.654-.436,5.972-4.577,5.972-6.626,0-.305-.175-.48-.829-.48-.872,0-2.485.785-3.967.785-2.921,0-4.272-2.747-4.272-5.275,0-7.019,9.809-15,15.215-17.525a2.623,2.623,0,0,1,1.177-.3c.567,0,.741.349.741.872C664.713,334.157,662.969,334.287,662.969,334.941Z" transform="translate(-601.065 -332.5)"/></g></svg>