<svg xmlns="http://www.w3.org/2000/svg" width="50.311" height="50.311" viewBox="0 0 19.311 19.311"><defs><style>.a{fill:#000;}</style></defs><path class="a" d="M17.242,2.25H2.069A2.069,2.069,0,0,0,0,4.319V19.492a2.069,2.069,0,0,0,2.069,2.069H7.985V15H5.269v-3.09H7.985V9.55c0-2.679,1.595-4.159,4.038-4.159a16.451,16.451,0,0,1,2.393.209V8.229H13.068A1.545,1.545,0,0,0,11.326,9.9v2.006H14.29L13.816,15H11.326v6.565h5.916a2.069,2.069,0,0,0,2.069-2.069V4.319A2.069,2.069,0,0,0,17.242,2.25Z" transform="translate(0 -2.25)"/></svg>