<svg xmlns="http://www.w3.org/2000/svg" width="50.31" height="50.31" viewBox="0 0 19.31 19.31"><defs><style>.a{fill:#000;}</style></defs><path class="a" d="M17.241,2.25H2.069A2.069,2.069,0,0,0,0,4.319V19.491A2.069,2.069,0,0,0,2.069,21.56H17.241a2.069,2.069,0,0,0,2.069-2.069V4.319A2.069,2.069,0,0,0,17.241,2.25ZM11.952,18.788c-.362.065-.5-.159-.5-.345,0-.233.009-1.422.009-2.384a1.679,1.679,0,0,0-.487-1.323c1.595-.177,3.276-.4,3.276-3.151A2.213,2.213,0,0,0,13.517,9.9a2.7,2.7,0,0,0-.073-1.94c-.6-.185-1.97.772-1.97.772a6.781,6.781,0,0,0-3.586,0s-1.371-.957-1.97-.772A2.675,2.675,0,0,0,5.845,9.9a2.165,2.165,0,0,0-.672,1.681c0,2.741,1.608,2.974,3.2,3.151a1.562,1.562,0,0,0-.457.961,1.512,1.512,0,0,1-2.082-.6,1.5,1.5,0,0,0-1.1-.737c-.7-.009-.047.44-.047.44.466.216.793,1.043.793,1.043.418,1.28,2.418.849,2.418.849,0,.6.009,1.573.009,1.75s-.129.409-.5.345a7.151,7.151,0,0,1-4.836-6.823A6.84,6.84,0,0,1,9.56,5a6.993,6.993,0,0,1,7.164,6.961A7.085,7.085,0,0,1,11.952,18.788ZM7.724,16.155c-.082.017-.159-.017-.168-.073s.047-.121.129-.138.159.026.168.082S7.81,16.138,7.724,16.155Zm-.409-.039c0,.056-.065.1-.151.1S7,16.181,7,16.116s.065-.1.151-.1S7.314,16.051,7.314,16.116Zm-.591-.047c-.017.056-.1.082-.177.056s-.138-.082-.121-.138.1-.082.177-.065S6.745,16.013,6.724,16.069Zm-.53-.233c-.039.047-.121.039-.185-.026s-.082-.138-.039-.177.121-.039.185.026S6.233,15.8,6.194,15.836ZM5.8,15.444c-.039.026-.112,0-.159-.065s-.047-.138,0-.168.121-.009.159.056a.126.126,0,0,1,0,.177Zm-.28-.418c-.039.039-.1.017-.151-.026s-.056-.121-.017-.151.1-.017.151.026S5.56,15,5.521,15.026Zm-.289-.319a.081.081,0,0,1-.121.017c-.056-.026-.082-.073-.065-.112a.1.1,0,0,1,.121-.017C5.224,14.625,5.25,14.672,5.233,14.707Z" transform="translate(0 -2.25)"/></svg>