<svg xmlns="http://www.w3.org/2000/svg" width="50.004" height="50.004" viewBox="0 0 19.004 19.004"><defs><style>.a{fill:#000;}</style></defs><path class="a" d="M1.731,19.063a2.259,2.259,0,0,1-1.04-.59,2.091,2.091,0,0,1-.576-.991c-.067-.264-.071-.512-.071-7.846,0-8.24-.015-7.787.2-8.251A2.216,2.216,0,0,1,1.326.311C1.805.1,1.338.11,9.641.122L17.29.129l.238.082a2.252,2.252,0,0,1,1.426,1.426l.082.238.007,7.649c.011,8.5.03,7.861-.241,8.411a2.206,2.206,0,0,1-.939.939c-.542.267.074.249-8.333.245C3.1,19.115,1.921,19.108,1.731,19.063Zm14.8-2.261c.3-.215.312-.238.323-1.652.011-1.378,0-1.448-.223-1.667-.2-.2-.3-.212-1.645-.208l-1.225,0-.167.089a.913.913,0,0,0-.275.26l-.111.163,0,1.229c0,.672.011,1.285.03,1.355a.694.694,0,0,0,.379.468l.186.093,1.289-.011,1.285-.011ZM10.287,13.2a3.686,3.686,0,0,0,2.844-2.859,4.536,4.536,0,0,0,.041-1.207,3.74,3.74,0,0,0-1.9-2.733,3.985,3.985,0,0,0-.98-.364c-.071-.007-.219-.03-.33-.048A3.668,3.668,0,0,0,6.644,7.4a3.633,3.633,0,0,0,.071,4.512,3.7,3.7,0,0,0,2.451,1.333A3.875,3.875,0,0,0,10.287,13.2Zm-6.465-2.41a5.893,5.893,0,0,1,.49-3.769,5.463,5.463,0,0,1,1.11-1.526,5.792,5.792,0,0,1,5.054-1.649A5.883,5.883,0,0,1,15.207,8.15a5.767,5.767,0,0,1,.152,2.079,4.089,4.089,0,0,1-.152.8c-.011.019-.007.033.011.037.141.015,1.586.011,1.612-.007s.03-1.66.026-4.144l-.011-4.126-.111-.16a.928.928,0,0,0-.278-.245L16.287,2.3l-6.781.011L2.73,2.32l-.152.1a.977.977,0,0,0-.238.241L2.251,2.8l-.011,4.1c0,2.258,0,4.118.007,4.14a4,4,0,0,0,.828.037h.813Z" transform="translate(-0.044 -0.117)"/></svg>