<svg xmlns="http://www.w3.org/2000/svg" width="50.311" height="50.311" viewBox="0 0 19.311 19.311"><defs><style>.a{fill:#000;}</style></defs><path class="a" d="M17.931,2.25H1.375A1.385,1.385,0,0,0,0,3.642V20.168a1.385,1.385,0,0,0,1.375,1.392H17.931a1.389,1.389,0,0,0,1.379-1.392V3.642A1.389,1.389,0,0,0,17.931,2.25ZM5.836,18.8H2.974V9.586H5.841V18.8ZM4.405,8.328A1.659,1.659,0,1,1,6.065,6.668,1.66,1.66,0,0,1,4.405,8.328ZM16.565,18.8H13.7V14.319c0-1.069-.022-2.444-1.487-2.444-1.491,0-1.72,1.164-1.72,2.366V18.8H7.634V9.586h2.746v1.259h.039a3.015,3.015,0,0,1,2.711-1.487c2.9,0,3.435,1.91,3.435,4.392Z" transform="translate(0 -2.25)"/></svg>