<svg xmlns="http://www.w3.org/2000/svg" width="50.311" height="50.311" viewBox="0 0 19.311 19.311"><defs><style>.a{fill:#000;}</style></defs><path class="a" d="M0,2.25V21.561H19.311V2.25ZM16.043,6.823l-1.034.991a.3.3,0,0,0-.116.289v7.3a.3.3,0,0,0,.116.289l1.013.991v.22H10.935V16.69l1.047-1.017c.1-.1.1-.134.1-.289v-5.9l-2.914,7.4H8.78l-3.392-7.4V14.44a.682.682,0,0,0,.19.569L6.94,16.66v.22H3.069v-.22l1.362-1.651a.66.66,0,0,0,.177-.569V8.707a.492.492,0,0,0-.164-.422L3.233,6.823V6.6H7L9.9,12.983l2.556-6.375h3.586Z" transform="translate(0 -2.25)"/></svg>