<svg xmlns="http://www.w3.org/2000/svg" width="50.311" height="50.311" viewBox="0 0 19.311 19.311"><defs><style>.a{fill:#000;}</style></defs><path class="a" d="M17.242,2.25H2.069A2.07,2.07,0,0,0,0,4.319V19.492a2.07,2.07,0,0,0,2.069,2.069H17.242a2.07,2.07,0,0,0,2.069-2.069V4.319A2.07,2.07,0,0,0,17.242,2.25ZM15.134,9.095c.009.121.009.246.009.366A7.988,7.988,0,0,1,7.1,17.5a8.006,8.006,0,0,1-4.341-1.267,5.955,5.955,0,0,0,.681.034,5.668,5.668,0,0,0,3.509-1.207A2.831,2.831,0,0,1,4.306,13.1a3.047,3.047,0,0,0,1.276-.052,2.827,2.827,0,0,1-2.263-2.776v-.034a2.825,2.825,0,0,0,1.276.358A2.821,2.821,0,0,1,3.336,8.246,2.792,2.792,0,0,1,3.72,6.819,8.027,8.027,0,0,0,9.548,9.776a2.833,2.833,0,0,1,4.823-2.582,5.54,5.54,0,0,0,1.793-.681,2.82,2.82,0,0,1-1.241,1.556,5.626,5.626,0,0,0,1.629-.44A5.95,5.95,0,0,1,15.134,9.095Z" transform="translate(0 -2.25)"/></svg>